<svg xmlns="http://www.w3.org/2000/svg" viewBox="0 0 420 420"><defs><linearGradient id="g" x1="0" x2="1" y1="0" y2="1"><stop offset="0" stop-color="#fff7d6"/><stop offset="1" stop-color="#f2a51d"/></linearGradient><filter id="s" x="-20%" y="-20%" width="140%" height="140%"><feDropShadow dx="0" dy="20" stdDeviation="18" flood-opacity=".45"/></filter></defs><g filter="url(#s)"><ellipse cx="220" cy="230" rx="120" ry="132" fill="#fff"/><ellipse cx="226" cy="250" rx="88" ry="95" fill="url(#g)" opacity=".55"/><circle cx="185" cy="142" r="74" fill="#fff"/><path d="M142 98c-20-14-52-11-70 9 20 5 38 18 52 40z" fill="#fff"/><path d="M185 61c4-42 40-54 55-28 24-24 64-9 55 31 38-4 52 38 20 57-53-12-98-16-141-3 1-19 4-38 11-57z" fill="#e5202c"/><circle cx="160" cy="140" r="12" fill="#111827"/><circle cx="220" cy="140" r="12" fill="#111827"/><path d="M182 159l45-1-22 29z" fill="#f59e0b"/><path d="M122 217c-68 20-100 75-79 118 41-26 91-35 129-28z" fill="#fff"/><path d="M292 211c62 8 105 54 99 101-39-17-85-25-132-7z" fill="#fff"/><path d="M159 333c-10 27-29 37-59 34 22-12 38-29 46-50zM257 333c7 30 25 44 55 45-21-13-34-33-39-59z" fill="#f59e0b"/><path d="M122 102c31 26 105 26 134 0 15 22 18 55 7 82-30-22-112-23-149 0-15-25-12-59 8-82z" fill="#0b1020" opacity=".92"/><path d="M141 121h106" stroke="#fbbf24" stroke-width="10" stroke-linecap="round" opacity=".8"/></g></svg>