<svg xmlns="http://www.w3.org/2000/svg" viewBox="0 0 640 320"><defs><linearGradient id="p" x1="0" x2="1"><stop offset="0" stop-color="#8b0617"/><stop offset=".55" stop-color="#ef233c"/><stop offset="1" stop-color="#ff7a18"/></linearGradient><filter id="glow" x="-30%" y="-30%" width="160%" height="160%"><feDropShadow dx="0" dy="16" stdDeviation="16" flood-color="#ff1744" flood-opacity=".45"/></filter></defs><g filter="url(#glow)"><path d="M63 170c117-47 260-80 437-86 52-2 82 20 91 47-48 19-110 25-184 20l-102 91-65-8 66-93-116-8-64 50z" fill="url(#p)"/><path d="M373 74l-92-45-66 16 92 58zM354 161l-79 102 75 13 102-103z" fill="#a70b20"/><ellipse cx="562" cy="126" rx="50" ry="28" fill="#111827" opacity=".6"/><circle cx="575" cy="126" r="16" fill="#ffd166"/><path d="M527 126h93M574 80v94" stroke="#ffd166" stroke-width="8" stroke-linecap="round" opacity=".8"/><circle cx="168" cy="167" r="10" fill="#fbbf24"/><circle cx="207" cy="157" r="9" fill="#fbbf24"/><circle cx="247" cy="149" r="8" fill="#fbbf24"/></g></svg>