<svg xmlns="http://www.w3.org/2000/svg" viewBox="0 0 300 240"><defs><linearGradient id="gold" x1="0" x2="1" y1="0" y2="1"><stop offset="0" stop-color="#fff59d"/><stop offset=".45" stop-color="#facc15"/><stop offset="1" stop-color="#b45309"/></linearGradient></defs><path d="M45 98c42 6 70 16 95 34C116 86 76 67 20 59c12 22 21 33 25 39zM255 98c-42 6-70 16-95 34 24-46 64-65 120-73-12 22-21 33-25 39z" fill="#d97706" opacity=".7"/><path d="M150 22l88 30v68c0 56-35 88-88 104-53-16-88-48-88-104V52z" fill="url(#gold)"/><path d="M150 47l62 20v50c0 41-24 64-62 78-38-14-62-37-62-78V67z" fill="#7c4a00" opacity=".25"/><path d="M150 74l18 36 40 6-29 28 7 40-36-19-36 19 7-40-29-28 40-6z" fill="#fff8c5"/></svg>